PathFileType	4	(X/Y/Z)	Kaydara																																																																																																																									
DataRate	CameraRate	NumFrames	NumMarkers	Units	OrigDataRate	OrigDataStartFrame	OrigNumFrames																																																																																																																					
30	30	5	41	mm	30	20	152																																																																																																																					
Frame#	Time	EMLA_LFHD			EMLA_RFHD			EMLA_LBHD			EMLA_RBHD			EMLA_LFTShould			EMLA_RFTShould			EMLA_LRRShould			EMLA_RRRShould			EMLA_T10			EMLA_STRN			EMLA_TRUN			EMLA_LSHO			EMLA_LUPA			EMLA_LELB			EMLA_LFRM			EMLA_LWRA			EMLA_LWRB			EMLA_LFIN			EMLA_RSHO			EMLA_RUPA			EMLA_RELB			EMLA_RFRM			EMLA_RWRA			EMLA_RWRB			EMLA_RFIN			EMLA_LFWT			EMLA_RFWT			EMLA_LBWT			EMLA_RBWT			EMLA_LTHI			EMLA_LKNE			EMLA_LSHN			EMLA_LANK			EMLA_LHEE			EMLA_LTOE			EMLA_RTHI			EMLA_RKNE			EMLA_RSHN			EMLA_RANK			EMLA_RHEE			EMLA_RTOE		
		X1	Y1	Z1	X2	Y2	Z2	X3	Y3	Z3	X4	Y4	Z4	X5	Y5	Z5	X6	Y6	Z6	X7	Y7	Z7	X8	Y8	Z8	X9	Y9	Z9	X10	Y10	Z10	X11	Y11	Z11	X12	Y12	Z12	X13	Y13	Z13	X14	Y14	Z14	X15	Y15	Z15	X16	Y16	Z16	X17	Y17	Z17	X18	Y18	Z18	X19	Y19	Z19	X20	Y20	Z20	X21	Y21	Z21	X22	Y22	Z22	X23	Y23	Z23	X24	Y24	Z24	X25	Y25	Z25	X26	Y26	Z26	X27	Y27	Z27	X28	Y28	Z28	X29	Y29	Z29	X30	Y30	Z30	X31	Y31	Z31	X32	Y32	Z32	X33	Y33	Z33	X34	Y34	Z34	X35	Y35	Z35	X36	Y36	Z36	X37	Y37	Z37	X38	Y38	Z38	X39	Y39	Z39	X40	Y40	Z40	X41	Y41	Z41
																																																																																																																												
20	0.643	278.30286	1643.78967	-1951.78238	106.5867	1647.9805	-1952.79861	293.54746	1609.07288	-2099.29443	98.40772	1615.03281	-2103.54797	277.23026	1400.92102	-1989.77798	126.99665	1389.45892	-1983.77563	264.21104	1451.16531	-2138.07556	105.81102	1440.37735	-2128.95905	197.75759	1275.67383	-2182.37106	203.10265	1329.93164	-1949.66827	199.2964	1226.90369	-1927.8096	399.97601	1424.05426	-2047.52899	456.27453	1241.34392	-2062.02332	474.42734	1098.35258	-2062.12845	473.9967	961.96716	-2049.40765	393.43567	823.80539	-1959.73709	447.54124	800.58693	-2020.20508	443.84453	770.97527	-1956.84433	0.8528	1417.45239	-2039.59732	-55.18275	1222.26738	-2031.18271	-72.20109	1078.76999	-2044.13879	-71.86304	975.81062	-2042.1611	7.63083	825.23193	-1934.13864	-43.13367	799.92271	-1997.9895	-49.44039	771.93375	-1939.49265	302.03665	989.70901	-1955.90637	65.604	978.52165	-1969.06586	280.051	1015.7299	-2154.45145	104.67375	1017.4057	-2149.02252	323.82832	730.19714	-2151.59225	328.51994	524.02805	-2117.11639	301.02856	341.93718	-2110.81665	301.07477	166.593	-2186.99875	234.66619	86.91094	-2246.53152	269.62181	74.52208	-2049.30222	72.21075	713.22784	-2164.64081	36.74858	512.91386	-2110.78476	76.61862	289.72923	-2109.2334	40.25383	131.79078	-2194.22928	97.30425	79.02756	-2246.54053	56.82003	72.0368	-2047.26532
21	0.677	278.42455	1643.73566	-1950.93338	106.69149	1647.77878	-1952.10831	293.79158	1609.13559	-2098.48785	98.63334	1614.94858	-2102.87903	277.6334	1400.79346	-1989.19693	127.3075	1389.46762	-1983.26309	264.39734	1451.1055	-2137.46307	106.12841	1440.26733	-2128.24524	197.93747	1275.66795	-2181.85989	203.31705	1329.73801	-1949.22714	199.48608	1226.75995	-1927.3526	400.2206	1424.00421	-2047.04681	456.61377	1241.29288	-2061.70471	474.83841	1098.31673	-2061.69205	474.36661	961.93726	-2049.00604	393.67851	823.63174	-1959.53003	447.78347	800.48225	-2019.84146	444.04514	770.87135	-1956.39557	1.11712	1417.32574	-2038.96118	-54.88643	1222.24655	-2030.51559	-71.88442	1078.61259	-2043.31253	-71.4328	975.61951	-2041.17859	8.35079	825.25261	-1933.07816	-42.28674	799.71535	-1996.59958	-48.59457	771.94687	-1938.1427	302.34501	989.50447	-1955.66635	65.68168	978.46367	-1968.71323	280.28561	1015.75096	-2154.04312	104.90433	1017.32338	-2148.6937	324.14146	730.19333	-2151.2941	328.60649	523.96709	-2116.84952	301.07321	341.89651	-2110.69382	301.11172	166.57106	-2186.95908	234.64039	86.94182	-2246.59897	269.65303	74.51666	-2049.29932	72.60979	713.2061	-2164.30862	36.88798	512.91775	-2110.91309	76.66018	289.76906	-2109.26804	40.37495	131.82752	-2194.27917	97.40792	79.02085	-2246.51016	56.81003	72.03544	-2047.29202
22	0.71	278.45718	1643.59772	-1950.21576	106.69532	1647.58652	-1951.62186	294.00879	1609.09988	-2097.82471	98.85662	1614.89731	-2102.36404	277.9723	1400.68069	-1988.84384	127.52443	1389.40903	-1983.05084	264.65912	1450.9288	-2137.10327	106.36013	1440.18402	-2127.96967	198.16557	1275.56969	-2181.54388	203.55602	1329.64508	-1948.8974	199.63175	1226.63658	-1927.04559	400.44479	1423.78189	-2046.55838	456.80599	1241.10397	-2061.17279	475.08636	1098.10715	-2061.29303	474.61617	961.73874	-2048.59451	393.84739	823.45078	-1959.07196	448.03143	800.30815	-2019.41742	444.31816	770.74669	-1956.04813	1.29654	1417.17148	-2038.66882	-54.66358	1222.0636	-2030.17822	-71.53742	1078.35526	-2042.69775	-70.97954	975.3392	-2040.40497	9.1178	825.31662	-1932.00439	-41.5342	799.56169	-1995.57846	-47.81044	771.94107	-1937.05338	302.50555	989.26559	-1955.22736	65.80017	978.46657	-1968.46573	280.45811	1015.68672	-2153.56964	105.14593	1017.30438	-2148.36792	324.25617	730.17776	-2151.08475	328.68584	523.94814	-2116.82495	301.18149	341.83411	-2110.67825	301.09501	166.52746	-2187.04498	234.99392	86.38067	-2246.41235	269.71523	74.50132	-2049.30862	72.82622	713.26195	-2164.09866	37.00565	512.87666	-2110.85846	76.67619	289.78128	-2109.27292	40.46643	131.85809	-2194.29291	97.50055	79.03299	-2246.5152	56.78461	72.03172	-2047.28958
23	0.743	278.51116	1643.35251	-1949.60449	106.74006	1647.34604	-1951.16699	294.19886	1609.12369	-2097.28134	99.01649	1614.95667	-2102.03247	277.96171	1400.56122	-1988.63281	127.52126	1389.21127	-1983.02795	264.89599	1450.89828	-2136.92398	106.58222	1440.11368	-2127.8862	198.42047	1275.48523	-2181.34552	203.56316	1329.58008	-1948.76175	199.53812	1226.57257	-1926.81274	400.4554	1423.51395	-2045.9375	456.89491	1240.89783	-2060.92545	475.12001	1097.9557	-2060.84244	474.71256	961.60767	-2048.18176	394.02905	823.33122	-1958.65555	448.19759	800.16411	-2019.03305	444.43012	770.52284	-1955.60883	1.35861	1417.0697	-2038.73032	-54.4846	1221.96289	-2030.13962	-71.16354	1078.16818	-2042.33307	-70.47585	975.15678	-2039.89822	9.83617	825.35805	-1931.30875	-40.80598	799.44481	-1994.75418	-47.06943	771.9635	-1936.1673	302.42416	989.19342	-1954.69269	65.73407	978.30856	-1968.37906	280.68865	1015.60287	-2153.10074	105.35006	1017.29019	-2148.14957	324.15737	730.21141	-2150.67947	328.66009	523.96599	-2116.67145	301.19827	341.83075	-2110.59311	301.05631	166.56879	-2187.05429	234.73204	86.67868	-2246.46835	269.72275	74.5057	-2049.28757	72.8879	713.25165	-2163.78555	37.09512	512.92152	-2110.64789	76.77879	289.76789	-2109.12338	40.48801	131.88289	-2194.20441	97.55381	79.05939	-2246.45752	56.80229	72.02301	-2047.24121
24	0.777	278.51725	1643.10593	-1949.16946	106.81906	1647.17514	-1950.75638	294.30408	1609.1626	-2096.85715	99.1873	1615.05249	-2101.73599	277.68003	1400.53665	-1988.51898	127.35769	1389.13055	-1983.12866	265.05396	1450.84702	-2136.71265	106.63569	1440.1384	-2128.04077	198.63066	1275.4007	-2181.23199	203.39605	1329.55231	-1948.70453	199.41494	1226.54449	-1926.69876	400.54413	1423.57376	-2045.84763	456.79302	1240.83366	-2060.32288	475.02838	1097.87148	-2060.29358	474.71352	961.58791	-2047.70813	394.12132	823.26691	-1958.27087	448.2642	800.09834	-2018.63251	444.51809	770.45418	-1955.35141	1.33952	1417.05429	-2038.992	-54.3128	1221.8676	-2030.19196	-70.84554	1078.02567	-2042.31964	-69.9937	975.01671	-2039.74625	10.67305	825.6105	-1930.72479	-40.15962	799.4252	-1994.26315	-46.41757	772.05208	-1935.64102	302.39916	989.30115	-1954.23859	65.71077	978.41385	-1968.11646	280.77387	1015.47501	-2152.76138	105.43567	1017.1521	-2147.90802	324.2688	730.17204	-2150.2803	328.63834	523.92281	-2116.33774	301.15698	341.82468	-2110.39948	301.00912	166.6164	-2186.97708	234.54441	86.96859	-2246.49033	269.73724	74.52241	-2049.27002	72.92776	713.26546	-2163.4668	37.10509	512.91359	-2110.57281	76.7873	289.77566	-2109.08707	40.47339	131.89406	-2194.20914	97.54345	79.06781	-2246.44745	56.78992	72.01274	-2047.20459
